<?xml version="1.0" standalone="no"?>
<!DOCTYPE svg PUBLIC "-//W3C//DTD SVG 20010904//EN"
 "http://www.w3.org/TR/2001/REC-SVG-20010904/DTD/svg10.dtd">
<svg version="1.0" xmlns="http://www.w3.org/2000/svg"
 width="512.000000pt" height="512.000000pt" viewBox="0 0 512.000000 512.000000"
 preserveAspectRatio="xMidYMid meet">
<metadata>
Created by potrace 1.14, written by Peter Selinger 2001-2017
</metadata>
<g transform="translate(0.000000,512.000000) scale(0.100000,-0.100000)"
fill="#000000" stroke="none">
<path d="M0 2560 l0 -2560 2560 0 2560 0 0 2560 0 2560 -2560 0 -2560 0 0
-2560z m1750 1416 c0 -9 -18 -15 -57 -19 -31 -3 -59 -10 -62 -15 -3 -5 -21
-13 -39 -17 -18 -4 -35 -12 -38 -19 -3 -7 -20 -19 -39 -26 -19 -8 -35 -18 -35
-22 0 -5 -11 -13 -25 -18 -14 -5 -25 -14 -25 -19 0 -5 -13 -14 -30 -21 -16 -7
-30 -16 -30 -21 0 -5 -11 -14 -25 -19 -14 -5 -25 -14 -25 -20 0 -5 -7 -10 -15
-10 -8 0 -20 -9 -27 -20 -7 -11 -17 -20 -23 -20 -10 0 -52 -32 -86 -65 -9 -8
-21 -15 -28 -15 -6 0 -14 -7 -17 -15 -4 -8 -11 -15 -16 -15 -6 0 -22 -10 -37
-22 -15 -13 -40 -32 -56 -43 -27 -19 -85 -76 -112 -109 -7 -8 -13 -22 -13 -31
0 -8 -5 -15 -11 -15 -17 0 -3 72 16 86 8 6 15 16 15 23 0 6 8 15 18 18 9 4 27
16 38 27 33 33 78 66 89 66 6 0 16 9 23 20 7 11 18 20 26 20 8 0 16 7 20 15 3
8 11 15 17 15 7 0 19 7 28 15 32 30 79 65 88 65 4 0 14 9 21 20 7 11 17 20 22
20 6 0 19 8 29 18 36 32 50 42 76 54 14 6 25 15 25 20 0 5 11 13 25 18 14 5
25 13 25 18 0 4 16 14 35 22 19 8 35 17 35 21 0 5 27 14 60 21 33 6 60 16 60
20 0 4 18 8 40 8 27 0 40 -4 40 -14z m87 -18 c25 -12 54 -38 90 -81 31 -39 33
-97 33 -1387 0 -1238 -3 -1370 -28 -1370 -4 0 -13 -13 -20 -29 -14 -32 -67
-51 -144 -51 -97 0 -158 37 -177 107 -7 26 -11 428 -11 1211 0 1115 -2 1220
-26 1157 -4 -8 -11 -15 -18 -15 -6 0 -24 -11 -40 -25 -16 -14 -32 -25 -36 -25
-4 0 -20 -11 -36 -25 -16 -14 -34 -25 -40 -25 -7 0 -14 -7 -18 -15 -3 -8 -12
-15 -20 -15 -9 0 -20 -9 -26 -20 -6 -11 -17 -20 -26 -20 -8 0 -17 -6 -20 -14
-3 -8 -19 -20 -35 -26 -16 -7 -29 -16 -29 -21 0 -4 -8 -10 -19 -14 -10 -3 -29
-15 -42 -26 -13 -11 -36 -23 -51 -26 -16 -3 -28 -9 -28 -14 0 -5 -22 -9 -50
-9 -27 0 -50 5 -50 10 0 6 -8 10 -18 10 -26 0 -72 55 -79 95 -4 23 -2 35 6 35
6 0 11 -7 11 -16 0 -22 38 -74 55 -74 7 0 15 -6 18 -12 2 -8 23 -13 57 -13 34
0 55 5 58 13 2 6 10 12 18 12 16 0 48 17 75 40 35 30 46 38 70 50 13 7 28 19
32 26 4 8 14 14 22 14 8 0 19 9 25 20 6 11 17 20 26 20 8 0 17 7 20 15 4 8 11
15 18 15 10 0 44 24 87 63 9 8 30 20 47 28 18 8 32 17 32 21 0 5 11 8 25 8
l25 0 0 -1190 c0 -787 3 -1190 10 -1190 6 0 10 -8 10 -17 0 -20 58 -83 77 -83
7 0 13 -4 13 -10 0 -5 25 -10 55 -10 30 0 55 5 55 10 0 6 8 10 18 10 24 0 71
53 78 89 4 17 10 31 15 31 5 0 9 562 9 1295 0 733 -4 1295 -9 1295 -5 0 -11
12 -14 28 -3 15 -15 38 -26 51 -12 13 -21 27 -21 31 0 3 -16 12 -35 20 -19 8
-35 17 -35 22 0 4 -9 8 -20 8 -11 0 -20 5 -20 10 0 14 43 13 77 -2z m743 -13
c0 -10 -10 -15 -31 -15 -36 0 -59 -11 -96 -48 -25 -24 -28 -35 -28 -87 0 -58
2 -63 43 -103 31 -31 51 -42 73 -42 20 0 29 -4 27 -12 -5 -16 -68 -23 -68 -9
0 6 -6 11 -13 11 -20 0 -64 41 -72 68 -3 12 -11 22 -16 22 -5 0 -9 27 -9 60 0
33 4 60 9 60 5 0 12 14 16 31 4 18 16 35 31 41 13 6 24 15 24 19 0 10 26 16
73 18 27 1 37 -3 37 -14z m1648 -4 c2 -6 9 -11 16 -11 16 0 54 -44 66 -76 13
-33 13 -84 0 -84 -5 0 -10 11 -10 25 0 27 -3 31 -57 92 -26 28 -42 36 -78 41
-31 3 -45 9 -45 20 0 12 10 14 52 10 29 -3 54 -11 56 -17z m92 -240 c0 -39
-22 -131 -31 -131 -3 0 -12 -20 -18 -45 -6 -25 -15 -45 -20 -45 -5 0 -12 -13
-16 -30 -4 -16 -11 -30 -16 -30 -5 0 -14 -20 -21 -45 -7 -25 -15 -45 -18 -45
-4 0 -13 -18 -20 -40 -7 -22 -16 -40 -20 -40 -4 0 -13 -18 -20 -40 -7 -22 -16
-40 -20 -40 -3 0 -12 -22 -19 -50 -7 -27 -17 -50 -22 -50 -4 0 -14 -18 -20
-40 -7 -22 -16 -40 -20 -40 -5 0 -14 -20 -20 -45 -6 -25 -15 -45 -19 -45 -4 0
-13 -18 -20 -40 -7 -22 -16 -40 -20 -40 -5 0 -14 -20 -21 -45 -7 -25 -16 -45
-20 -45 -3 0 -11 -18 -18 -40 -6 -22 -16 -40 -21 -40 -6 0 -10 -6 -10 -13 0
-7 -8 -28 -18 -47 -9 -19 -24 -54 -31 -77 -8 -24 -17 -43 -21 -43 -4 0 -13
-18 -20 -40 -7 -22 -16 -40 -20 -40 -4 0 -13 -20 -19 -45 -6 -25 -15 -45 -20
-45 -4 0 -13 -18 -20 -40 -6 -22 -16 -40 -20 -40 -5 0 -15 -22 -22 -50 -7 -27
-15 -50 -19 -50 -3 0 -19 -29 -35 -65 -16 -36 -32 -65 -36 -65 -4 0 -12 -22
-19 -50 -7 -27 -16 -50 -20 -50 -5 0 -14 -17 -21 -37 -6 -21 -18 -43 -25 -51
-7 -7 -16 -28 -20 -47 -3 -19 -10 -35 -14 -35 -4 0 -13 -18 -20 -40 -7 -22
-16 -40 -20 -40 -4 0 -13 -18 -20 -40 -7 -22 -17 -40 -22 -40 -4 0 -8 -8 -8
-17 0 -10 -14 -45 -30 -78 -16 -33 -30 -66 -30 -72 0 -7 -4 -13 -10 -13 -5 0
-15 -20 -21 -45 -6 -25 -15 -45 -19 -45 -4 0 -13 -18 -20 -40 -7 -22 -16 -40
-20 -40 -4 0 -13 -18 -20 -40 -7 -22 -17 -40 -22 -40 -4 0 -8 -6 -8 -13 0 -16
-50 -62 -78 -71 -12 -4 -22 -12 -22 -17 0 -5 -27 -9 -60 -9 -33 0 -60 4 -60 9
0 5 -12 12 -26 15 -34 9 -84 55 -84 78 0 10 -4 18 -10 18 -6 0 -10 27 -10 60
0 33 4 60 10 60 6 0 10 8 10 18 0 10 9 35 20 57 11 22 20 45 20 51 0 7 6 19
13 26 8 7 20 30 26 51 7 20 16 37 20 37 5 0 14 20 21 45 7 25 16 45 19 45 4 0
13 20 20 45 7 25 16 45 21 45 4 0 13 18 20 40 7 22 16 40 20 40 4 0 13 18 20
40 7 22 16 40 20 40 4 0 11 16 14 35 4 19 13 40 20 47 7 8 19 30 25 51 7 20
17 37 22 37 5 0 9 6 9 13 0 7 8 28 18 47 9 19 24 54 31 78 8 23 17 42 21 42 4
0 13 18 20 40 7 22 16 40 20 40 5 0 14 20 21 45 7 25 16 45 20 45 3 0 11 18
18 40 6 22 15 40 20 40 4 0 13 18 20 40 6 22 16 40 20 40 5 0 15 23 22 50 7
28 16 50 19 50 4 0 13 18 20 40 7 22 16 40 20 40 4 0 13 18 20 40 7 22 17 40
22 40 4 0 8 6 8 14 0 8 6 21 13 28 7 7 19 34 26 61 8 26 17 47 22 47 4 0 13
17 20 37 6 21 18 43 25 51 7 7 16 28 20 47 3 19 10 35 14 35 4 0 12 18 19 40
6 22 15 40 20 40 4 0 13 18 20 40 6 22 16 40 20 40 5 0 15 23 22 50 7 28 16
50 20 50 5 0 14 18 20 40 7 22 16 40 20 40 4 0 13 17 20 37 6 21 18 43 25 51
7 7 16 28 20 47 3 19 10 35 15 35 5 0 9 7 9 15 0 8 5 15 10 15 6 0 10 -10 10
-22 0 -26 -21 -88 -30 -88 -4 0 -13 -18 -20 -40 -7 -22 -16 -40 -20 -40 -5 0
-14 -20 -21 -45 -7 -25 -16 -45 -20 -45 -3 0 -11 -18 -18 -40 -6 -22 -15 -40
-20 -40 -4 0 -13 -18 -20 -40 -6 -22 -16 -40 -20 -40 -5 0 -15 -22 -22 -50 -7
-27 -16 -50 -19 -50 -4 0 -13 -18 -20 -40 -7 -22 -16 -40 -20 -40 -4 0 -13
-18 -20 -40 -7 -22 -16 -40 -20 -40 -5 0 -14 -20 -21 -45 -7 -25 -17 -45 -20
-45 -4 0 -10 -13 -14 -30 -4 -16 -10 -30 -15 -30 -5 0 -14 -17 -21 -37 -6 -21
-18 -43 -25 -51 -7 -7 -16 -28 -20 -47 -3 -19 -10 -35 -14 -35 -4 0 -12 -18
-19 -40 -6 -22 -15 -40 -20 -40 -4 0 -13 -18 -20 -40 -6 -22 -16 -40 -20 -40
-5 0 -15 -22 -22 -50 -7 -27 -16 -50 -20 -50 -5 0 -14 -18 -20 -40 -7 -22 -16
-40 -20 -40 -5 0 -14 -18 -20 -40 -7 -22 -16 -40 -20 -40 -5 0 -14 -20 -20
-45 -6 -25 -15 -45 -19 -45 -4 0 -13 -18 -20 -40 -7 -22 -16 -40 -20 -40 -4 0
-12 -18 -19 -40 -6 -22 -16 -40 -20 -40 -5 0 -14 -22 -21 -50 -7 -27 -16 -50
-21 -50 -4 0 -14 -18 -20 -40 -7 -22 -16 -40 -20 -40 -5 0 -14 -18 -20 -40 -7
-22 -16 -40 -20 -40 -5 0 -14 -20 -20 -45 -6 -25 -15 -45 -19 -45 -4 0 -13
-18 -20 -40 -7 -22 -16 -40 -20 -40 -4 0 -12 -18 -19 -40 -6 -22 -16 -40 -20
-40 -5 0 -12 -16 -15 -35 -4 -19 -10 -35 -14 -35 -5 0 -14 -17 -21 -38 -8 -20
-19 -40 -25 -44 -14 -9 -15 -146 0 -156 6 -4 13 -15 17 -25 4 -9 15 -20 24
-24 10 -4 21 -11 25 -17 4 -6 37 -11 73 -11 36 0 69 5 73 11 4 6 15 14 25 17
11 4 21 16 24 26 3 11 11 22 18 25 7 2 16 18 20 35 4 17 11 31 15 31 5 0 15
18 21 40 7 22 15 40 18 40 4 0 13 20 20 45 7 25 16 45 21 45 4 0 13 18 20 40
7 22 17 40 21 40 4 0 11 14 14 32 4 17 18 51 31 76 13 25 24 51 24 58 0 8 5
14 10 14 6 0 15 20 22 45 7 25 15 45 18 45 4 0 13 18 20 40 7 22 16 40 20 40
4 0 13 18 20 40 7 22 16 40 20 40 4 0 13 20 19 45 6 25 15 45 20 45 5 0 12 13
16 30 4 16 11 30 15 30 5 0 15 18 21 40 7 22 15 40 19 40 4 0 11 16 14 35 4
19 13 40 20 47 7 8 19 30 25 51 7 20 16 37 21 37 4 0 13 22 20 50 7 28 16 50
20 50 5 0 14 17 21 37 6 21 18 43 25 51 7 7 16 28 20 47 3 19 10 35 14 35 4 0
13 18 20 40 7 22 16 40 20 40 4 0 12 18 19 40 6 22 15 40 20 40 4 0 13 23 20
50 7 28 17 50 22 50 4 0 14 18 20 40 7 22 16 40 20 40 5 0 14 20 20 45 6 25
15 45 19 45 4 0 13 18 20 40 7 22 16 40 20 40 3 0 12 17 19 38 7 20 34 82 61
137 27 55 54 117 61 138 7 20 16 37 20 37 4 0 10 11 13 25 4 14 10 25 15 25 5
0 14 21 22 48 7 26 18 53 25 59 7 7 15 31 19 53 4 22 11 40 16 40 5 0 9 16 9
35 0 19 5 35 10 35 6 0 10 -13 10 -29z"/>
</g>
</svg>
